<?xml version="1.0" encoding="UTF-8"?>
<svg width="200px" height="200px" viewBox="0 0 200 200" version="1.1" xmlns="http://www.w3.org/2000/svg" xmlns:xlink="http://www.w3.org/1999/xlink">
    <title>CTLogo</title>
    <defs>
        <filter x="-39.5%" y="-34.5%" width="178.9%" height="169.1%" filterUnits="objectBoundingBox" id="filter-1">
            <feOffset dx="0" dy="9" in="SourceAlpha" result="shadowOffsetOuter1"></feOffset>
            <feGaussianBlur stdDeviation="9" in="shadowOffsetOuter1" result="shadowBlurOuter1"></feGaussianBlur>
            <feColorMatrix values="0 0 0 0 0   0 0 0 0 0   0 0 0 0 0  0 0 0 0.5 0" type="matrix" in="shadowBlurOuter1" result="shadowMatrixOuter1"></feColorMatrix>
            <feMerge>
                <feMergeNode in="shadowMatrixOuter1"></feMergeNode>
                <feMergeNode in="SourceGraphic"></feMergeNode>
            </feMerge>
        </filter>
        <polygon id="path-2" points="0.037037037 0.0462962963 132.990123 0.0462962963 132.990123 119.396296 0.037037037 119.396296"></polygon>
    </defs>
    <g id="CTLogo" stroke="none" stroke-width="1" fill="none" fill-rule="evenodd">
        <g id="Logo2-Vector" filter="url(#filter-1)" transform="translate(35.555556, 22.612847)">
            <g id="Group-3" transform="translate(0.000000, 31.708140)">
                <mask id="mask-3" fill="white">
                    <use xlink:href="#path-2"></use>
                </mask>
                <g id="Clip-2"></g>
                <path d="M113.187654,75.517284 C108.384568,81.367284 102.646914,85.945679 95.9734568,89.2432099 C89.2962963,92.5450617 82.2080247,94.1944444 74.7080247,94.1944444 C65.8549383,94.1944444 57.6061728,91.9092593 49.9555556,87.3314815 C42.3049383,82.7561728 36.2641975,76.6067901 31.8407407,68.8790123 C27.4141975,61.1537037 25.2024691,52.7895062 25.2024691,43.7882716 C25.2024691,34.7876543 27.4141975,26.4265432 31.8407407,18.6981481 C31.9166667,18.5666667 32.0012346,18.4438272 32.0771605,18.312963 L13.8104938,0.0462962963 C12.4697531,1.95061728 11.2018519,3.92777778 10.0135802,5.98395062 C3.33641975,17.5382716 0,30.1395062 0,43.7882716 C0,57.441358 3.33641975,70.0432099 10.0135802,81.5932099 C16.687037,93.1462963 25.7654321,102.333951 37.241358,109.158025 C48.7179012,115.98642 61.2067901,119.396296 74.7080247,119.396296 C86.1074074,119.396296 96.908642,116.921605 107.111728,111.971605 C117.312346,107.02037 125.937037,100.122222 132.990123,91.2685185 L113.187654,75.517284" id="Fill-1" fill="#946FFF" mask="url(#mask-3)"></path>
            </g>
            <g id="Group-10" transform="translate(20.143711, 0.000000)" fill="#670CFF">
                <path d="M84.8309799,6.52665895 C75.1544367,2.25073302 65.063696,0.113078704 54.5643133,0.113078704 C41.0630787,0.113078704 28.5741898,3.48838735 17.0976466,10.2396219 C10.659375,14.026659 4.99147377,18.5859182 0.0643132716,23.8853009 L17.9334491,41.7544367 C21.3087577,37.9661651 25.2211034,34.726659 29.6994985,32.0667824 C33.1970293,29.9883873 36.8494985,28.396412 40.6519676,27.2778935 L40.6519676,98.1871528 C40.8803627,98.376659 41.2390046,98.6581404 41.7032022,98.9865355 C44.9569059,101.290239 53.6569059,105.997647 63.1019676,98.9865355 C63.4451775,98.7322145 63.7890046,98.4575231 64.1334491,98.1711034 L64.1334491,26.276659 C67.6544367,26.9871528 71.1044367,28.0846836 74.4797454,29.5914738 C80.8538194,32.4427083 86.4408565,36.4933256 91.2439429,41.7427083 L109.921103,24.8655478 C102.868017,16.9161651 94.5069059,10.8019676 84.8309799,6.52665895" id="Fill-9"></path>
            </g>
        </g>
    </g>
</svg>